HIERARCHY
ROOT pelvis
{
  OFFSET 0 0 0
  CHANNELS 6 Xposition Yposition Zposition Zrotation Xrotation Yrotation
  JOINT spine_01
  {
    OFFSET 10.8089 -0.851415 0
    CHANNELS 3 Zrotation Xrotation Yrotation
    JOINT spine_02
    {
      OFFSET 18.8753 3.80116 0
      CHANNELS 3 Zrotation Xrotation Yrotation
      JOINT spine_03
      {
        OFFSET 13.4073 0.420477 0
        CHANNELS 3 Zrotation Xrotation Yrotation
        JOINT clavicle_l
        {
          OFFSET 11.8837 -2.73209 -3.78198
          CHANNELS 3 Zrotation Xrotation Yrotation
          JOINT upperarm_l
          {
            OFFSET 15.7849 0 0
            CHANNELS 3 Zrotation Xrotation Yrotation
            JOINT lowerarm_l
            {
              OFFSET 30.3399 0 0
              CHANNELS 3 Zrotation Xrotation Yrotation
              JOINT hand_l
              {
                OFFSET 26.9751 0 0
                CHANNELS 3 Zrotation Xrotation Yrotation
                End Site
                {
                  OFFSET 0 0 0
                }
              }
            }
          }
        }
        JOINT clavicle_r
        {
          OFFSET 11.8838 -2.7321 3.782
          CHANNELS 3 Zrotation Xrotation Yrotation
          JOINT upperarm_r
          {
            OFFSET -15.7848 0 0
            CHANNELS 3 Zrotation Xrotation Yrotation
            JOINT lowerarm_r
            {
              OFFSET -30.34 0 0
              CHANNELS 3 Zrotation Xrotation Yrotation
              JOINT hand_r
              {
                OFFSET -26.9752 2.55532e-005 0
                CHANNELS 3 Zrotation Xrotation Yrotation
                End Site
                {
                  OFFSET 0 0 0
                }
              }
            }
          }
        }
        JOINT neck_01
        {
          OFFSET 16.5588 -0.355317 0
          CHANNELS 3 Zrotation Xrotation Yrotation
          JOINT head
          {
            OFFSET 9.28362 0.364158 0
            CHANNELS 3 Zrotation Xrotation Yrotation
            End Site
            {
              OFFSET 0 0 0
            }
          }
        }
      }
    }
  }
  JOINT thigh_l
  {
    OFFSET -1.44882 -0.531424 -9.00581
    CHANNELS 3 Zrotation Xrotation Yrotation
    JOINT calf_l
    {
      OFFSET -42.572 0 0
      CHANNELS 3 Zrotation Xrotation Yrotation
      JOINT foot_l
      {
        OFFSET -40.1967 0 0
        CHANNELS 3 Zrotation Xrotation Yrotation
        JOINT ball_l
        {
          OFFSET -10.4538 -16.5779 0.0801573
          CHANNELS 3 Zrotation Xrotation Yrotation
          End Site
          {
            OFFSET 0 0 0
          }
        }
      }
    }
  }
  JOINT thigh_r
  {
    OFFSET -1.44865 -0.531428 9.0058
    CHANNELS 3 Zrotation Xrotation Yrotation
    JOINT calf_r
    {
      OFFSET 42.5723 0 0
      CHANNELS 3 Zrotation Xrotation Yrotation
      JOINT foot_r
      {
        OFFSET 40.1968 0 -1.14441e-005
        CHANNELS 3 Zrotation Xrotation Yrotation
        JOINT ball_r
        {
          OFFSET 10.4538 16.5778 -0.0801582
          CHANNELS 3 Zrotation Xrotation Yrotation
          End Site
          {
            OFFSET 0 0 0
          }
        }
      }
    }
  }
}
MOTION
Frames:	20
Frame Time:	0.0333333
9.29529 76.4467 40.789 -99.9028 -52.7658 177.316 -32.3631 1.25281 7.54339 14.3342 0.130886 -1.71183 3.06179 0.12464 -1.71033 -10.9629 28.4596 97.9622 -57.7125 -27.9667 40.3471 -124.117 -8.61435 1.16197 -37.666 -59.0679 -29.9762 -178 23.8561 77.7948 -61.8741 -26.4429 61.6331 -119.727 -8.52376 1.21937 -105.084 -70.2215 -78.8493 -28.3079 0.552575 0.379477 17.316 3.84532 4.64881 52.3389 11.9615 -28.4788 -64.4509 -7.93403 -11.1329 8.26972 -0.889165 9.51052 -91.8836 0.00394553 0.00895438 -161.908 18.5916 -28.3795 -72.4691 -4.4613 -14.2746 16.2762 0.317568 15.7461 -91.8836 0.00394682 0.00895635 
8.40935 76.1327 38.3542 -100.262 -50.762 176.047 -31.1849 1.44801 7.87713 14.0972 0.188572 -1.61583 2.82588 0.180859 -1.6165 -11.025 28.8423 98.1421 -55.4574 -26.9342 42.8177 -125.336 -8.63859 1.14495 -37.7347 -59.0181 -30.5795 -178.188 23.7868 78.0227 -62.3925 -26.3984 62.5867 -118.973 -8.50808 1.2283 -105.23 -70.5877 -79.3386 -28.3325 0.574392 1.01027 16.7244 4.41426 5.44376 51.6262 12.4299 -29.5963 -62.1421 -8.3953 -11.2354 5.64855 -0.304424 11.4308 -91.8836 0.00394553 0.00895438 -164.595 19.5229 -27.4131 -70.3179 -4.63331 -14.1469 20.0565 -0.610339 17.8297 -91.8836 0.00394682 0.00895635 
7.35546 76.2438 35.3455 -99.7012 -49.3264 175.278 -29.4661 1.86949 7.98462 13.724 0.308537 -1.28027 2.45309 0.302707 -1.28587 -11.0964 29.2598 98.3608 -52.7873 -25.4614 45.2538 -126.593 -8.6629 1.12711 -37.7355 -59.1412 -31.2516 -178.352 23.429 78.2182 -62.9944 -26.7236 63.091 -118.401 -8.4963 1.23546 -105.191 -71.0532 -79.8677 -28.4137 0.615935 1.91287 16.3064 5.11554 5.99207 50.5818 13.151 -30.2775 -57.5993 -9.40514 -11.1186 1.56667 0.317641 13.5713 -91.8836 0.00394553 0.00895438 -167.142 20.7352 -25.7599 -66.3487 -4.90576 -12.7356 24.8086 1.94286 19.3736 -91.8836 0.00394682 0.00895635 
6.33012 76.5692 31.8965 -98.4994 -48.4735 174.866 -27.608 2.51809 7.51053 13.3424 0.487002 -0.607381 2.06861 0.48923 -0.620582 -11.1947 29.618 98.6101 -50.132 -24.1911 47.2171 -127.796 -8.68484 1.11028 -36.8062 -59.6611 -31.1344 -178.113 22.7442 77.9276 -63.4568 -27.8151 63.2955 -117.816 -8.48335 1.24181 -105.611 -71.5066 -81.1974 -28.5244 0.682716 3.00763 16.032 5.93102 6.22392 49.0965 14.0131 -30.5042 -50.8832 -10.3581 -10.6171 -3.484 -0.29238 15.7938 -91.8836 0.00394553 0.00895438 -169.099 21.5895 -24.1697 -61.7725 -3.37483 -10.5553 33.3738 5.48129 20.333 -91.8836 0.00394682 0.00895635 
5.49464 76.9846 28.3197 -97.1232 -48.3127 174.566 -26.002 3.16255 6.36558 13.0213 0.669815 0.294028 1.73994 0.686817 0.272351 -11.2876 29.8744 98.8258 -47.7986 -23.5444 48.6533 -128.823 -8.70609 1.09332 -35.3299 -60.5634 -30.3746 -177.338 21.9773 77.0097 -63.6897 -29.2983 63.1215 -117.219 -8.47061 1.24853 -106.633 -71.906 -83.2185 -28.535 0.739841 4.04478 15.8378 6.59268 6.32419 47.056 15.0125 -30.0061 -42.8102 -11.2691 -9.74465 -8.35442 -2.68543 17.5805 -91.8836 0.00394553 0.00895438 -169.493 22.031 -23.4102 -58.8159 -2.48696 -8.5197 41.7298 7.18014 20.199 -91.8836 0.00394682 0.00895635 
4.88929 77.6469 25.0026 -95.9965 -48.9082 174.373 -24.9414 3.46231 4.82832 12.7836 0.774196 1.0891 1.49354 0.806158 1.06186 -11.3644 30.0076 98.9736 -46.0606 -23.655 49.765 -129.439 -8.66741 1.12562 -34.6291 -61.3845 -30.1117 -176.423 21.4735 75.9193 -63.935 -30.5316 62.2303 -116.848 -8.46293 1.25064 -107.459 -72.2427 -84.8568 -28.3938 0.750504 4.76896 15.6718 6.86595 6.56176 45.19 15.8529 -28.7816 -36.4368 -12.4656 -8.711 -11.8784 -5.53415 18.5102 -91.8836 0.00394553 0.00895438 -167.185 21.958 -23.476 -59.9713 -3.41013 -7.1158 43.4902 6.49142 17.3469 -91.8836 0.00394682 0.00895635 
4.4056 78.9828 22.0045 -95.2603 -50.0254 174.419 -24.8326 3.25705 3.84653 12.7457 0.752275 1.32482 1.45329 0.786469 1.29896 -11.4452 30.0102 99.0709 -45.1709 -24.1031 50.4244 -129.462 -8.73325 1.07084 -35.1727 -61.5114 -30.6277 -175.884 21.4177 75.2451 -64.3114 -30.8755 60.8826 -116.98 -8.46517 1.24989 -106.882 -72.4693 -84.5438 -28.231 0.698932 5.09527 15.5891 6.71424 6.9269 44.4867 16.2416 -27.2105 -35.3281 -13.5582 -8.00529 -13.3109 -7.04208 18.3021 -91.8836 0.00394553 0.00895438 -166.152 22.2993 -22.6072 -59.3146 -3.17292 -5.38288 42.7628 5.37959 14.8064 -91.8836 0.00394682 0.00895635 
3.96668 80.9762 19.3436 -94.562 -51.1977 174.946 -25.1946 2.88229 3.62812 12.806 0.653738 1.02908 1.51687 0.679716 1.0078 -11.5172 29.8855 99.1008 -45.3873 -24.9479 50.5199 -128.952 -8.70855 1.09135 -35.7759 -61.0902 -31.3448 -175.788 21.6564 75.094 -64.4451 -30.5136 59.8693 -117.652 -8.47958 1.24381 -105.225 -72.6434 -82.9233 -28.2007 0.593691 5.09778 15.7425 6.25154 7.17006 43.9649 16.4709 -25.446 -38.2623 -13.513 -7.60472 -12.4865 -8.02426 17.6482 -91.8836 0.00394553 0.00895438 -166.951 22.5035 -20.3809 -55.9442 -1.22236 -3.33805 40.4118 4.39937 13.2388 -91.8836 0.00394682 0.00895635 
3.63058 83.1764 17.0755 -93.4236 -51.8419 176.217 -25.3496 2.75444 3.75576 12.8587 0.562953 0.531034 1.57364 0.579463 0.512884 -11.5438 29.7005 99.0466 -46.4756 -26.2613 49.6531 -128.323 -8.70783 1.092 -35.3517 -60.673 -31.7275 -175.976 21.8639 75.3168 -64.1059 -30.0991 59.6581 -118.504 -8.49762 1.23409 -104.018 -72.861 -81.9655 -28.3224 0.477961 4.9614 16.142 5.72967 7.14407 43.3396 16.4317 -23.6261 -44.1205 -13.1039 -7.79848 -9.19269 -8.32391 16.8604 -91.8836 0.00394553 0.00895438 -168.423 22.3322 -17.4324 -51.1702 1.16315 -1.57751 37.1417 3.47862 12.0089 -91.8836 0.00394682 0.00895635 
3.44592 85.2221 15.0999 -91.679 -51.5049 178.149 -25.025 3.0099 3.94423 12.8893 0.532896 0.0931023 1.60767 0.541456 0.0750312 -11.5005 29.5517 98.9229 -47.6979 -27.7299 48.1388 -127.964 -8.68706 1.10855 -34.319 -60.389 -31.8009 -176.438 21.8923 75.8996 -63.8091 -30.0366 59.7215 -119.056 -8.50945 1.22876 -103.967 -72.9683 -82.4085 -28.5353 0.39802 4.89354 16.6856 5.45704 6.98837 42.0486 16.3588 -22.115 -49.4774 -12.7487 -7.96335 -7.00903 -8.7425 17.4466 -91.8836 0.00394553 0.00895438 -168.423 21.8727 -14.867 -47.7049 1.5432 -0.761557 32.1846 2.60922 10.1066 -91.8836 0.00394682 0.00895635 
3.36401 86.7301 13.4056 -89.7185 -50.0471 -179.742 -24.0078 3.6224 3.9298 12.7994 0.573419 -0.164506 1.52016 0.576016 -0.186512 -11.3752 29.5169 98.7503 -48.3524 -29.1685 46.4105 -128.01 -8.6887 1.10737 -33.6013 -60.1476 -32.1949 -177.304 21.806 76.9676 -64.3076 -30.6316 59.0511 -119.004 -8.50863 1.22935 -105.117 -72.7926 -84.4282 -28.79 0.380325 5.0111 17.2349 5.69601 7.02248 40.1856 16.7012 -20.8496 -53.6204 -12.4179 -7.77606 -3.74767 -7.85738 15.6969 -91.8836 0.00394553 0.00895438 -167.374 21.7253 -13.4027 -45.566 -1.9367 -0.689346 28.5297 2.82739 9.85164 -91.8836 0.00394682 0.00895635 
3.26749 87.5225 12.0339 -88.2245 -47.8269 -178.034 -22.5189 4.36294 3.52227 12.6002 0.648399 -0.248911 1.32157 0.646196 -0.277636 -11.1626 29.6267 98.5328 -48.1935 -30.4791 44.8958 -128.305 -8.69541 1.10196 -33.3024 -60.0188 -33.03 -178.564 21.6712 78.459 -65.8494 -31.7797 57.2648 -118.377 -8.495 1.23553 -106.811 -72.4375 -87.2821 -29.0509 0.4371 5.26269 17.5739 6.53019 7.43927 37.6385 17.7183 -20.1037 -54.8137 -12.3067 -7.10494 -0.393794 -4.9061 12.5556 -91.8836 0.00394553 0.00895438 -165.574 21.4862 -14.1377 -45.1679 -3.52578 -0.1271 25.8761 0.306372 14.9628 -91.8836 0.00394682 0.00895635 
3.11719 87.6105 10.9306 -87.531 -45.657 -177.023 -21.2285 4.84718 2.72904 12.5006 0.697766 -0.206176 1.22056 0.692113 -0.239091 -10.8906 29.8327 98.2809 -47.5389 -31.5191 43.8101 -128.609 -8.69832 1.09912 -32.7836 -60.1743 -33.5201 -179.815 21.5721 79.8779 -67.7995 -32.928 55.1557 -117.54 -8.47721 1.24506 -108.082 -72.2653 -89.5143 -29.2243 0.560874 5.46008 17.4978 7.6908 8.12132 34.8913 18.9879 -19.4345 -53.6816 -12.0015 -6.5628 5.09806 -0.430757 7.04815 -91.8836 0.00394553 0.00895438 -163.893 21.2345 -15.6467 -45.5142 -5.16688 -0.320104 23.1731 0.531267 18.263 -91.8836 0.00394682 0.00895635 
2.97149 87.172 9.91334 -87.4269 -44.3333 -176.685 -20.7139 4.81603 1.95056 12.6998 0.680338 -0.137829 1.41782 0.673447 -0.167965 -10.6447 30.0063 98.0509 -46.921 -32.0892 43.284 -128.731 -8.7003 1.09711 -31.9811 -60.4544 -32.9849 179.552 21.6669 80.5861 -69.0604 -33.4386 54.0953 -116.96 -8.46777 1.2503 -108.193 -72.4213 -89.7787 -29.1862 0.708114 5.45166 17.0598 8.64653 8.76524 33.1772 19.2672 -19.2418 -52.3103 -11.2352 -6.68367 11.4909 3.48739 6.60775 -91.8836 0.00394553 0.00895438 -162.835 20.6916 -17.3711 -46.1775 -3.887 -0.971061 21.6908 2.72595 17.5102 -91.8836 0.00394682 0.00895635 
2.78472 86.3131 8.67474 -87.6238 -44.1206 -177.089 -21.0299 4.31134 1.92611 13.1355 0.604758 -0.179361 1.85348 0.597417 -0.202056 -10.545 30.0026 97.9427 -46.7565 -32.3289 43.2277 -128.524 -8.69949 1.09866 -31.6162 -60.6141 -31.9047 179.737 22.019 80.3895 -69.0684 -33.2058 54.6841 -116.862 -8.46792 1.25082 -107.539 -72.6338 -88.4421 -28.9274 0.809026 5.25666 16.6197 8.97934 9.11203 32.7522 18.8092 -19.0775 -51.8886 -10.1715 -7.12135 16.2876 4.54766 7.6213 -91.8836 0.00394553 0.00895438 -162.306 19.7119 -19.1355 -47.033 2.14537 -1.60983 21.6341 2.2082 15.3701 -91.8836 0.00394682 0.00895635 
2.41861 85.089 7.09829 -88.1249 -44.7269 -178.208 -21.788 3.65359 2.76381 13.5223 0.525039 -0.308722 2.24159 0.51647 -0.324775 -10.6648 29.7712 98.0238 -47.0653 -32.418 43.5466 -128 -8.69044 1.10677 -32.1509 -60.5947 -31.2616 -179.626 22.4562 79.6605 -68.1234 -32.5181 56.447 -117.09 -8.47042 1.24993 -107.161 -72.6778 -87.0988 -28.5983 0.821066 5.0154 16.4577 8.6729 9.08703 33.7714 18.2024 -19.1388 -53.4799 -10.4345 -7.899 18.0025 4.61715 8.89148 -91.8836 0.00394553 0.00895438 -162.258 18.9814 -20.4945 -47.8812 3.96466 -3.18125 22.1085 3.05317 16.0347 -91.8836 0.00394682 0.00895635 
1.83623 83.7222 5.32005 -89.1095 -45.6849 -179.687 -22.6099 3.25925 3.45556 13.6483 0.501591 -0.277673 2.36784 0.495567 -0.291097 -10.9774 29.431 98.286 -47.3643 -31.8967 44.6875 -127.432 -8.68037 1.11379 -33.278 -60.3088 -31.2625 -178.935 22.6943 78.8591 -66.9 -31.4437 58.6358 -117.218 -8.47024 1.25008 -107.077 -72.6153 -86.1734 -28.3978 0.760824 4.8879 16.4584 8.05217 8.82679 35.4455 17.6015 -19.884 -56.1209 -10.5407 -8.36843 18.1812 3.338 9.78386 -91.8836 0.00394553 0.00895438 -162.87 19.1208 -21.3324 -48.9414 3.45024 -4.44369 26.2493 3.55804 18.1674 -91.8836 0.00394682 0.00895635 
1.20192 82.5429 3.59315 -90.5726 -46.5388 178.904 -23.4338 3.34067 3.01347 13.5558 0.551678 0.0873866 2.27254 0.554937 0.0727608 -11.3906 29.2097 98.6917 -47.0298 -30.0802 47.1379 -127.181 -8.67584 1.11759 -34.404 -59.8271 -31.3422 -178.438 22.6267 78.2839 -66.245 -30.0601 60.4092 -116.766 -8.4606 1.25368 -106.488 -72.5486 -84.9109 -28.415 0.686772 4.98697 16.3161 7.58691 8.65227 37.0446 16.9342 -21.0008 -58.6875 -10.6898 -8.95068 17.0967 2.09812 10.6482 -91.8836 0.00394553 0.00895438 -163.873 19.9977 -21.5035 -50.1319 1.18631 -4.66702 32.5098 4.82107 18.2752 -91.8836 0.00394682 0.00895635 
0.696958 81.8238 2.0416 -92.1163 -46.9807 177.673 -24.2359 3.7188 1.74394 13.3872 0.639396 0.643803 2.09871 0.653635 0.626478 -11.8548 29.2126 99.2381 -46.0161 -26.8662 50.5394 -127.295 -8.67497 1.12023 -35.1559 -59.4942 -30.8112 -178.236 22.428 78.0534 -66.556 -28.6249 61.1954 -115.675 -8.43699 1.26543 -104.972 -72.4858 -82.8697 -28.5832 0.642799 5.29694 15.9373 7.52332 8.7701 38.194 16.1445 -21.7766 -60.4974 -10.7761 -9.74608 14.3996 1.4555 11.4545 -91.8836 0.00394553 0.00895438 -163.067 20.3084 -21.7958 -53.6613 -0.392271 -4.44827 34.8567 4.68297 16.3966 -91.8836 0.00394682 0.00895635 
0.348837 81.6301 0.695973 -93.2209 -47.003 176.597 -24.7632 4.06298 0.760483 13.1869 0.713897 1.08081 1.89376 0.735266 1.06066 -12.3297 29.3559 99.8711 -45.014 -23.2013 53.6595 -127.39 -8.67465 1.12088 -35.0855 -59.5564 -29.3476 -178.306 22.3328 78.1451 -67.3939 -27.4001 61.0398 -114.498 -8.41103 1.27773 -103.192 -72.4091 -80.8484 -28.8268 0.616531 5.67375 15.6011 7.70103 9.02039 39.0167 15.3213 -21.9443 -61.3263 -11.0457 -10.5145 9.07958 1.0184 12.6005 -91.8836 0.00394553 0.00895438 -162.488 20.5649 -21.8936 -55.5395 -0.871639 -4.22693 35.8588 4.41593 15.0675 -91.8836 0.00394682 0.00895635 
